Coordinates
version=1
nRows=16
nColumns=36
inDegrees=yes

Units are S.I. units (second, meters, Newtons, ...)
If the header above contains a line with 'inDegrees', this indicates whether rotational values are in degrees (yes) or radians (no).

endheader
time	pelvis_tilt	pelvis_list	pelvis_rotation	pelvis_tx	pelvis_ty	pelvis_tz	hip_flexion_r	hip_adduction_r	hip_rotation_r	knee_angle_r	knee_angle_r_beta	ankle_angle_r	subtalar_angle_r	mtp_angle_r	hip_flexion_l	hip_adduction_l	hip_rotation_l	knee_angle_l	knee_angle_l_beta	ankle_angle_l	subtalar_angle_l	mtp_angle_l	lumbar_extension	lumbar_bending	lumbar_rotation	arm_flex_r	arm_add_r	arm_rot_r	elbow_flex_r	pro_sup_r	arm_flex_l	arm_add_l	arm_rot_l	elbow_flex_l	pro_sup_l
      4.76666670	      2.81236893	      0.41015801	      7.63001890	     -0.00991740	      0.98449393	      0.08621769	     -0.08028773	      5.76320785	      9.14128405	     31.00475041	      0.54113498	     30.16506204	    -13.73976892	     -7.49999987	     28.17293603	     -9.07426491	     -0.56927927	     14.58685113	      0.25458858	     -3.96894518	      4.72645774	     -7.49999987	    -16.08858754	     -1.03325943	     13.44812153	     15.91280071	     -9.04482206	     -4.21250586	     44.45975566	     86.98591161	     -7.02379403	     -9.31284562	     -7.00854631	     70.50024852	     90.54502957
      4.78333330	      2.22156746	      0.82024580	      8.42978965	     -0.02444520	      0.98991670	      0.08235494	      1.58069998	      5.30666406	      8.27679848	     31.60052750	      0.55153325	     28.98275385	    -13.66774456	     -7.49999987	     28.19529941	     -8.32051989	     -0.72352805	     13.29533950	      0.23204745	     -4.38211837	      2.76681632	     -7.49999987	    -15.84492027	     -0.85996951	     13.91473366	     16.15421088	     -9.11206234	     -3.00108509	     42.46053861	     87.86215439	     -5.99013558	     -8.46723948	     -5.26964475	     64.16983577	     91.21753236
      4.80000000	      1.85719179	      1.47001541	      9.21014844	     -0.03529126	      0.98976017	      0.09466460	      3.12401079	      4.92474504	      7.71141238	     32.49219124	      0.56709572	     27.75330759	    -14.17515649	     -7.49999987	     27.91132162	     -7.64862033	     -1.38584582	     12.32742504	      0.21515416	     -5.43662691	     -0.29905013	     -7.49999987	    -16.39940758	     -1.50129607	     13.81728528	     16.19148603	     -8.57125343	     -1.97862642	     42.08613883	     88.16440913	     -4.92450578	     -7.90560310	     -5.10474417	     59.69429908	     91.33871726
      4.81666670	      1.10731708	      1.83905808	      9.84420431	     -0.05916345	      0.98843096	      0.10185886	      5.99962329	      4.79731323	      7.35170064	     34.20945147	      0.59706756	     27.18368830	    -14.29755359	     -7.49999987	     29.26276876	     -7.22887536	     -1.35889095	     13.38349159	      0.23358599	     -5.67630872	     -3.68238427	     -7.49999987	    -16.89291990	     -1.91709507	     13.71367994	     16.46878852	     -8.26077481	     -0.70617237	     42.67011009	     88.02547074	     -3.43807408	     -7.81887441	     -3.98969664	     55.80341370	     91.05008358
      4.83333330	      0.59201576	      1.98478544	     10.84595356	     -0.06945964	      0.98792134	      0.10328182	      8.27631918	      4.79149600	      7.33789041	     35.45965151	      0.61888767	     26.13814374	    -14.92978484	     -7.49999987	     30.59620397	     -7.00438478	     -1.48710839	     15.31179975	      0.26724132	     -6.28378811	     -8.07170790	     -7.49999987	    -17.44107208	     -1.99126918	     13.17194056	     16.63988653	     -7.84465047	     -0.23454958	     43.45212619	     88.09132792	     -3.36367110	     -7.28059981	     -3.46710063	     53.29723967	     90.95434525
      4.85000000	      0.44968136	      2.24500123	     12.49612320	     -0.07358145	      0.99742445	      0.10633053	      8.96972606	      4.55604912	      7.15597683	     34.98294270	      0.61056753	     23.92446914	    -15.55486188	     -7.49999987	     30.65469995	     -6.58808371	     -1.87555707	     16.82791432	      0.29370251	     -6.73950874	     -9.75808205	     -7.49999987	    -17.94163193	     -1.99545035	     12.61810471	     16.35075819	     -7.07550297	      0.19362574	     43.51333656	     87.74432967	     -2.65603408	     -6.92422941	     -2.79282203	     50.82570055	     90.42214219
      4.86666670	      0.32647530	      2.38101154	     14.49236127	     -0.07994713	      0.99499787	      0.11058061	      9.47888591	      4.55467224	      7.48740042	     34.61412980	      0.60413053	     21.86619805	    -16.55837913	     -7.49999987	     30.73412232	     -6.52819283	     -2.34645754	     19.07576150	      0.33293485	     -6.37603901	    -10.79966272	     -7.49999987	    -17.87012199	     -1.82032073	     12.21096309	     15.60561405	     -6.48749611	      0.42852309	     43.19329154	     87.36662968	     -1.80818904	     -6.72294694	     -1.72303669	     48.67532817	     89.84413779
      4.88333330	      0.16572733	      2.55370820	     16.41595548	     -0.08483708	      0.99805213	      0.11333580	      9.41839242	      4.68036209	      8.30507015	     33.37503207	      0.58250420	     19.54856412	    -17.80874676	     -7.49999987	     30.36369542	     -6.10321928	     -2.15283499	     21.39047171	      0.37333416	     -6.67923729	    -12.31987010	     -7.49999987	    -17.61438011	     -1.78520592	     12.09764003	     14.59596629	     -6.09411684	      0.31100101	     42.33913165	     87.47789639	     -1.60056521	     -6.41761093	     -1.06268564	     46.75716050	     89.81929029
      4.90000000	      0.13871604	      2.89995130	     18.19326001	     -0.08652330	      1.00152654	      0.11228419	      8.54344035	      4.57816295	      8.62764371	     31.81860608	      0.55533944	     17.93459495	    -18.49730971	     -7.49999987	     29.46078382	     -5.65362944	     -2.30474407	     23.43174732	      0.40896114	     -6.83876087	    -13.73998016	     -7.49999987	    -17.17945222	     -2.16001931	     11.95634050	     13.36714636	     -5.41687771	      0.43848170	     40.63215728	     87.76343760	     -1.11897338	     -6.46165792	     -0.08125862	     44.89897909	     89.99519631
      4.91666670	     -0.47082903	      3.36977930	     19.76043549	     -0.09676830	      1.00121437	      0.12148934	      8.71913176	      4.47718956	      8.56910535	     30.87582255	      0.53888476	     17.26761084	    -19.32397835	     -7.49999987	     29.77235155	     -4.90210390	     -2.37831987	     27.48523435	      0.47970784	     -4.95483438	    -14.66958390	     -7.49999987	    -16.51506534	     -3.27600565	     12.31814662	     12.21961087	     -4.62810628	      0.85364441	     39.51810859	     87.84017182	     -0.73721714	     -6.82739765	      0.71613438	     44.22584604	     89.71961807
      4.93333330	     -0.57872440	      3.84944435	     21.14378017	     -0.10838788	      1.01078088	      0.13148976	      8.60307010	      4.41554960	      8.28366517	     29.57021812	      0.51609767	     16.51574474	    -19.81753554	     -7.49999987	     29.40061226	     -4.39979106	     -2.96430819	     30.37404683	      0.53012712	     -4.05967499	    -14.22815484	     -7.49999987	    -16.70910364	     -4.22824595	     13.05450021	     11.52740929	     -4.07148224	      1.25012656	     38.76738669	     87.73141017	     -0.09802552	     -6.92335510	      0.44176367	     44.74850089	     89.36657359
      4.95000000	     -1.04720006	      3.89014055	     22.41680645	     -0.11777430	      1.00922855	      0.13078505	      9.46169431	      4.48896710	      8.01408419	     29.14965462	      0.50875745	     15.05268865	    -21.20566466	     -7.49999987	     29.44307540	     -4.29792447	     -4.90850520	     33.03294939	      0.57653373	     -2.78206593	    -13.65546113	     -7.49999987	    -16.54899270	     -4.69495703	     13.35203545	     11.07913062	     -3.66663480	      1.84471402	     37.95698157	     87.95913490	     -0.16417332	     -6.88410391	     -0.66996388	     45.67736279	     89.11338897
      4.96666670	     -1.38133251	      4.04951597	     23.97108267	     -0.12476596	      1.00880534	      0.13497851	     10.05922114	      4.21392781	      6.81175390	     28.60701871	      0.49928667	     15.03942392	    -21.51226648	     -7.49999987	     29.67520909	     -4.11966599	     -5.71187298	     36.15136791	      0.63096040	     -1.76651775	    -13.15423432	     -7.49999987	    -16.37073096	     -5.13535338	     13.98786179	     10.09302199	     -3.30020504	      2.28221140	     37.89274878	     87.61376630	      0.06347484	     -6.78054860	     -1.31948392	     47.07363049	     88.51977957
      4.98333330	     -1.96069922	      3.84171070	     24.89950900	     -0.12864492	      1.01067065	      0.13812867	     11.01869849	      4.35025093	      6.42994045	     28.26354364	      0.49329189	     14.06942417	    -22.87003603	     -7.49999987	     29.67454864	     -4.40128526	     -7.07491847	     38.53374659	      0.67254075	      0.20577383	    -11.47977130	     -7.49999987	    -15.68929178	     -5.39810389	     14.61259080	      9.00420686	     -2.91460472	      3.27325983	     37.82383048	     87.56687758	     -0.64196615	     -6.48549955	     -2.79091440	     49.21607546	     88.00623818
      5.00000000	     -2.45140114	      3.70565356	     26.57182550	     -0.14049250	      1.00788959	      0.13852808	     11.97617752	      4.17635577	      5.57113298	     28.03205145	      0.48925159	     12.38544609	    -25.02383783	     -7.49999987	     29.29763113	     -4.55219086	     -8.75095290	     40.75617470	      0.71132944	      0.81095576	    -11.64370935	     -7.49999987	    -15.19926796	     -5.30773205	     14.01132581	      8.57913482	     -2.59381299	      4.92339294	     36.69853092	     88.71294024	     -1.51664533	     -6.11560074	     -5.04126344	     51.28832494	     88.54628945
      5.01666670	     -2.73625724	      3.68106100	     28.32583989	     -0.15000918	      1.01459866	      0.14616356	     12.41524279	      3.88785594	      4.26825864	     27.32969646	      0.47699319	     11.15877457	    -26.38130378	     -7.49999987	     28.84557053	     -4.93820222	    -10.36477479	     42.87436010	      0.74829875	      0.11490104	    -12.48319784	     -7.49999987	    -14.63740289	     -5.28295497	     14.36796953	      7.90839622	     -2.16335717	      5.43381490	     35.27079893	     89.57869946	     -1.53569866	     -5.72461773	     -5.83558636	     52.47220229	     89.24812156
